<mxfile>
    <diagram id="93nKIgONB0-IuktudtvZ" name="第 1 页">
        <mxGraphModel dx="625" dy="475" grid="1" gridSize="10" guides="1" tooltips="1" connect="1" arrows="1" fold="1" page="1" pageScale="1" pageWidth="1169" pageHeight="827" math="0" shadow="0">
            <root>
                <mxCell id="68ukw9NqcnR62MRP7he2-0"/>
                <mxCell id="68ukw9NqcnR62MRP7he2-1" parent="68ukw9NqcnR62MRP7he2-0"/>
                <mxCell id="68ukw9NqcnR62MRP7he2-4" value="&lt;b style=&quot;font-size: 16px&quot;&gt;&lt;font style=&quot;font-size: 16px&quot;&gt;- 光标移动、搜索、替换&lt;br&gt;&lt;br&gt;-删除字符，删除整行&lt;br&gt;&lt;br&gt;-复制整行，粘贴整行&lt;/font&gt;&lt;/b&gt;" style="html=1;shadow=0;dashed=0;shape=mxgraph.bootstrap.rrect;rSize=5;strokeColor=#0085FC;html=1;whiteSpace=wrap;fillColor=#ffffff;fontColor=#0085FC;verticalAlign=middle;align=left;spacing=20;spacingBottom=0;fontSize=14;" parent="68ukw9NqcnR62MRP7he2-1" vertex="1">
                    <mxGeometry x="80" y="210" width="220" height="260" as="geometry"/>
                </mxCell>
                <mxCell id="68ukw9NqcnR62MRP7he2-5" value="&lt;font style=&quot;font-size: 20px&quot;&gt;一般模式&lt;/font&gt;" style="html=1;shadow=0;dashed=0;shape=mxgraph.bootstrap.topButton;rSize=5;perimeter=none;whiteSpace=wrap;fillColor=#F7F7F7;strokeColor=#0085FC;fontColor=#212529;resizeWidth=1;fontSize=18;align=left;spacing=20;" parent="68ukw9NqcnR62MRP7he2-4" vertex="1">
                    <mxGeometry width="220" height="50" relative="1" as="geometry"/>
                </mxCell>
                <mxCell id="68ukw9NqcnR62MRP7he2-6" value="&lt;b&gt;&lt;font style=&quot;font-size: 16px&quot;&gt;以插入或替换来编辑文件内容&lt;/font&gt;&lt;/b&gt;" style="html=1;shadow=0;dashed=0;shape=mxgraph.bootstrap.rrect;rSize=5;strokeColor=#33A64C;html=1;whiteSpace=wrap;fillColor=#ffffff;fontColor=#33A64C;verticalAlign=bottom;align=left;spacing=20;spacingBottom=0;fontSize=14;" parent="68ukw9NqcnR62MRP7he2-1" vertex="1">
                    <mxGeometry x="510" y="210" width="250" height="110" as="geometry"/>
                </mxCell>
                <mxCell id="68ukw9NqcnR62MRP7he2-7" value="&lt;font style=&quot;font-size: 20px&quot;&gt;编辑模式&lt;/font&gt;" style="html=1;shadow=0;dashed=0;shape=mxgraph.bootstrap.topButton;rSize=5;perimeter=none;whiteSpace=wrap;fillColor=#F7F7F7;strokeColor=#33A64C;fontColor=#6C767D;resizeWidth=1;fontSize=18;align=left;spacing=20;" parent="68ukw9NqcnR62MRP7he2-6" vertex="1">
                    <mxGeometry width="250.00000000000003" height="50" relative="1" as="geometry"/>
                </mxCell>
                <mxCell id="OGY6Ornf9FVNcDwg-vyK-0" value="&lt;span style=&quot;font-size: 16px&quot;&gt;&lt;b&gt;读取、保存文件，其他功能&lt;br&gt;&lt;/b&gt;&lt;/span&gt;" style="html=1;shadow=0;dashed=0;shape=mxgraph.bootstrap.rrect;rSize=5;strokeColor=#DB2843;html=1;whiteSpace=wrap;fillColor=#ffffff;fontColor=#DB2843;verticalAlign=bottom;align=left;spacing=20;spacingBottom=0;fontSize=14;" parent="68ukw9NqcnR62MRP7he2-1" vertex="1">
                    <mxGeometry x="510" y="360" width="250" height="110" as="geometry"/>
                </mxCell>
                <mxCell id="OGY6Ornf9FVNcDwg-vyK-1" value="命令行模式" style="html=1;shadow=0;dashed=0;shape=mxgraph.bootstrap.topButton;rSize=5;perimeter=none;whiteSpace=wrap;fillColor=#F7F7F7;strokeColor=#DB2843;fontColor=#6C767D;resizeWidth=1;fontSize=18;align=left;spacing=20;" parent="OGY6Ornf9FVNcDwg-vyK-0" vertex="1">
                    <mxGeometry width="250" height="50" relative="1" as="geometry"/>
                </mxCell>
                <mxCell id="OGY6Ornf9FVNcDwg-vyK-2" value="" style="endArrow=classic;html=1;exitX=1.004;exitY=0.24;exitDx=0;exitDy=0;exitPerimeter=0;entryX=0.004;entryY=0.568;entryDx=0;entryDy=0;entryPerimeter=0;strokeWidth=3;strokeColor=#666666;" parent="68ukw9NqcnR62MRP7he2-1" source="68ukw9NqcnR62MRP7he2-4" target="68ukw9NqcnR62MRP7he2-6" edge="1">
                    <mxGeometry width="50" height="50" relative="1" as="geometry">
                        <mxPoint x="360" y="420" as="sourcePoint"/>
                        <mxPoint x="410" y="370" as="targetPoint"/>
                    </mxGeometry>
                </mxCell>
                <mxCell id="OGY6Ornf9FVNcDwg-vyK-3" value="&lt;font style=&quot;font-size: 16px&quot;&gt;i,I,o,O,a,A,,r,R&lt;/font&gt;" style="edgeLabel;html=1;align=center;verticalAlign=middle;resizable=0;points=[];fontColor=#6CA30F;" parent="OGY6Ornf9FVNcDwg-vyK-2" vertex="1" connectable="0">
                    <mxGeometry x="-0.1758" y="-1" relative="1" as="geometry">
                        <mxPoint x="13.11" y="-12.62" as="offset"/>
                    </mxGeometry>
                </mxCell>
                <mxCell id="OGY6Ornf9FVNcDwg-vyK-4" value="" style="endArrow=classic;html=1;strokeWidth=3;entryX=1.017;entryY=0.383;entryDx=0;entryDy=0;entryPerimeter=0;exitX=-0.017;exitY=0.897;exitDx=0;exitDy=0;exitPerimeter=0;strokeColor=#666666;" parent="68ukw9NqcnR62MRP7he2-1" source="68ukw9NqcnR62MRP7he2-6" target="68ukw9NqcnR62MRP7he2-4" edge="1">
                    <mxGeometry width="50" height="50" relative="1" as="geometry">
                        <mxPoint x="500" y="300" as="sourcePoint"/>
                        <mxPoint x="320" y="390" as="targetPoint"/>
                    </mxGeometry>
                </mxCell>
                <mxCell id="OGY6Ornf9FVNcDwg-vyK-5" value="&lt;span style=&quot;font-size: 16px&quot;&gt;[Esc]&lt;/span&gt;" style="edgeLabel;html=1;align=center;verticalAlign=middle;resizable=0;points=[];fontColor=#6CA30F;" parent="OGY6Ornf9FVNcDwg-vyK-4" vertex="1" connectable="0">
                    <mxGeometry x="-0.1758" y="-1" relative="1" as="geometry">
                        <mxPoint x="-22.75" y="11.959999999999999" as="offset"/>
                    </mxGeometry>
                </mxCell>
                <mxCell id="OGY6Ornf9FVNcDwg-vyK-6" value="" style="endArrow=classic;html=1;exitX=1.004;exitY=0.24;exitDx=0;exitDy=0;exitPerimeter=0;strokeWidth=3;strokeColor=#666666;entryX=0.001;entryY=0.569;entryDx=0;entryDy=0;entryPerimeter=0;" parent="68ukw9NqcnR62MRP7he2-1" target="OGY6Ornf9FVNcDwg-vyK-0" edge="1">
                    <mxGeometry width="50" height="50" relative="1" as="geometry">
                        <mxPoint x="300.0000000000001" y="421.9500000000001" as="sourcePoint"/>
                        <mxPoint x="509" y="420" as="targetPoint"/>
                    </mxGeometry>
                </mxCell>
                <mxCell id="OGY6Ornf9FVNcDwg-vyK-7" value="&lt;span style=&quot;font-size: 16px&quot;&gt;&lt;font color=&quot;#fa4343&quot;&gt;: / ?&lt;/font&gt;&lt;/span&gt;" style="edgeLabel;html=1;align=center;verticalAlign=middle;resizable=0;points=[];fontColor=#6CA30F;" parent="OGY6Ornf9FVNcDwg-vyK-6" vertex="1" connectable="0">
                    <mxGeometry x="-0.1758" y="-1" relative="1" as="geometry">
                        <mxPoint x="13.11" y="-12.62" as="offset"/>
                    </mxGeometry>
                </mxCell>
                <mxCell id="OGY6Ornf9FVNcDwg-vyK-8" value="" style="endArrow=classic;html=1;strokeWidth=3;entryX=1.017;entryY=0.383;entryDx=0;entryDy=0;entryPerimeter=0;strokeColor=#666666;" parent="68ukw9NqcnR62MRP7he2-1" edge="1">
                    <mxGeometry width="50" height="50" relative="1" as="geometry">
                        <mxPoint x="509" y="451" as="sourcePoint"/>
                        <mxPoint x="300" y="450.90999999999997" as="targetPoint"/>
                    </mxGeometry>
                </mxCell>
                <mxCell id="OGY6Ornf9FVNcDwg-vyK-9" value="&lt;span style=&quot;font-size: 16px&quot;&gt;[Esc]&lt;/span&gt;" style="edgeLabel;html=1;align=center;verticalAlign=middle;resizable=0;points=[];fontColor=#FA4343;" parent="OGY6Ornf9FVNcDwg-vyK-8" vertex="1" connectable="0">
                    <mxGeometry x="-0.1758" y="-1" relative="1" as="geometry">
                        <mxPoint x="-22.75" y="11.959999999999999" as="offset"/>
                    </mxGeometry>
                </mxCell>
            </root>
        </mxGraphModel>
    </diagram>
</mxfile>